<?xml version="1.0" standalone="no"?>
<!DOCTYPE svg PUBLIC "-//W3C//DTD SVG 20010904//EN"
 "http://www.w3.org/TR/2001/REC-SVG-20010904/DTD/svg10.dtd">
<svg version="1.0" xmlns="http://www.w3.org/2000/svg"
 width="515.000000pt" height="515.000000pt" viewBox="0 0 515.000000 515.000000"
 preserveAspectRatio="xMidYMid meet">

<g transform="translate(0.000000,515.000000) scale(0.100000,-0.100000)"
fill="#000000" stroke="none">
<path d="M2390 5144 c-168 -14 -265 -26 -270 -33 -3 -4 -52 -15 -109 -24 -58
-9 -107 -20 -110 -25 -3 -4 -43 -17 -88 -27 -46 -10 -83 -21 -83 -25 0 -4 -29
-15 -65 -25 -36 -9 -65 -20 -65 -24 0 -4 -27 -15 -60 -25 -33 -10 -60 -22 -60
-26 0 -4 -21 -15 -47 -25 -27 -10 -54 -25 -61 -32 -7 -7 -20 -13 -28 -13 -8 0
-22 -8 -32 -18 -10 -10 -33 -24 -52 -31 -19 -8 -40 -19 -45 -25 -6 -6 -26 -20
-45 -30 -19 -11 -44 -28 -54 -38 -11 -10 -26 -18 -33 -18 -7 0 -17 -9 -23 -20
-6 -11 -17 -20 -25 -20 -8 0 -20 -8 -27 -18 -7 -11 -18 -21 -25 -23 -16 -5
-72 -53 -142 -119 -32 -30 -72 -66 -89 -80 -18 -14 -32 -29 -32 -34 0 -5 -24
-33 -52 -62 -60 -59 -111 -120 -117 -137 -2 -7 -12 -18 -23 -25 -10 -7 -18
-19 -18 -27 0 -8 -9 -19 -20 -25 -11 -6 -20 -16 -20 -23 0 -7 -8 -22 -18 -33
-10 -10 -27 -35 -38 -54 -10 -19 -24 -39 -30 -45 -6 -5 -17 -26 -25 -45 -7
-19 -21 -42 -31 -52 -10 -10 -18 -24 -18 -32 0 -8 -6 -21 -13 -28 -7 -7 -22
-34 -32 -61 -10 -26 -21 -47 -25 -47 -4 0 -16 -27 -26 -60 -10 -33 -21 -60
-25 -60 -4 0 -15 -29 -24 -65 -10 -36 -21 -65 -25 -65 -4 0 -15 -37 -25 -82
-10 -46 -23 -86 -27 -89 -5 -3 -16 -50 -25 -105 -9 -54 -19 -101 -24 -104 -16
-11 -33 -248 -33 -460 0 -209 17 -448 33 -460 4 -3 15 -52 24 -110 10 -57 21
-107 26 -110 4 -3 16 -40 26 -82 10 -43 22 -78 25 -78 3 0 14 -32 25 -70 11
-39 22 -70 26 -70 4 0 15 -25 24 -55 10 -30 21 -55 25 -55 5 0 16 -22 26 -50
10 -27 21 -50 25 -50 3 0 14 -20 23 -45 10 -25 21 -45 26 -45 5 0 14 -16 20
-35 6 -19 17 -38 24 -42 7 -5 20 -25 30 -45 9 -21 20 -38 25 -38 4 0 15 -16
24 -35 9 -19 21 -35 25 -35 5 0 14 -10 20 -22 12 -27 48 -73 80 -104 12 -12
22 -25 22 -29 0 -4 24 -32 53 -61 28 -28 66 -67 84 -85 29 -31 77 -76 190
-178 23 -21 48 -41 55 -45 28 -13 53 -32 66 -48 7 -10 19 -18 27 -18 8 0 18
-6 22 -14 4 -7 23 -21 41 -30 17 -9 32 -20 32 -24 0 -4 20 -16 45 -26 25 -11
45 -22 45 -25 0 -4 20 -15 45 -26 25 -11 45 -23 45 -26 0 -4 21 -14 47 -24 27
-10 53 -24 60 -31 7 -6 32 -18 57 -25 26 -7 46 -16 46 -20 0 -4 29 -15 65 -25
36 -10 65 -22 65 -25 0 -4 33 -15 73 -24 39 -10 74 -21 77 -24 6 -8 90 -28
153 -37 26 -3 47 -9 47 -13 0 -10 156 -31 278 -38 56 -3 102 -10 102 -15 0 -4
63 -8 140 -8 77 0 140 4 140 8 0 5 46 12 103 15 120 7 280 27 287 37 3 4 49
15 103 25 53 10 97 21 97 25 0 5 33 16 73 25 39 10 74 21 77 26 3 4 31 15 63
24 31 9 57 20 57 24 0 3 20 13 46 20 25 7 50 19 57 25 7 7 33 21 60 31 26 10
47 21 47 24 0 4 16 13 35 20 19 7 41 18 48 24 7 7 30 21 52 32 22 11 44 25 48
32 4 7 13 13 20 13 7 0 25 11 41 25 16 14 32 25 35 25 3 0 22 14 41 30 19 16
38 30 42 30 3 0 25 18 48 40 23 22 45 40 48 40 4 0 33 27 65 60 32 32 67 62
77 65 10 3 22 15 25 25 3 10 33 45 65 77 33 32 60 61 60 65 0 3 18 25 40 48
22 23 40 45 40 48 0 4 14 23 30 42 16 19 30 38 30 41 0 3 11 19 25 35 14 16
25 34 25 41 0 7 6 16 13 20 7 4 21 26 32 48 11 22 25 45 32 52 6 7 17 29 24
48 7 19 16 35 20 35 3 0 14 21 24 47 10 27 24 53 31 60 6 7 18 32 25 57 7 26
17 46 20 46 4 0 15 26 24 58 9 31 20 59 24 62 5 3 16 38 26 78 9 39 20 72 25
72 4 0 15 44 25 98 10 53 21 99 25 102 9 8 31 172 37 287 3 57 10 103 15 103
4 0 8 63 8 140 0 77 -4 140 -8 140 -5 0 -12 46 -15 103 -7 121 -28 277 -38
277 -4 0 -10 21 -13 48 -9 62 -29 146 -37 152 -3 3 -14 38 -24 78 -9 39 -20
72 -24 72 -3 0 -15 29 -25 65 -10 36 -21 65 -25 65 -4 0 -13 20 -20 46 -7 25
-19 50 -25 57 -7 7 -21 33 -31 60 -10 26 -20 47 -24 47 -3 0 -15 20 -26 45
-11 25 -22 45 -26 45 -3 0 -14 20 -25 45 -10 25 -22 45 -26 45 -4 0 -15 15
-24 33 -9 17 -23 36 -30 40 -8 4 -14 14 -14 22 0 8 -8 20 -17 27 -17 13 -36
38 -49 66 -4 7 -24 32 -45 55 -93 103 -141 154 -174 187 -105 105 -143 140
-150 140 -4 0 -17 10 -29 23 -31 31 -77 67 -103 79 -13 6 -23 15 -23 20 0 4
-16 16 -35 25 -19 9 -35 20 -35 24 0 5 -17 16 -37 25 -21 10 -41 23 -46 30 -4
7 -23 18 -42 24 -19 6 -35 15 -35 20 0 5 -20 16 -45 26 -25 9 -45 20 -45 23 0
4 -22 15 -50 25 -27 10 -50 21 -50 26 0 4 -25 15 -55 25 -30 9 -55 20 -55 24
0 4 -31 15 -70 26 -38 11 -70 22 -70 25 0 3 -35 15 -77 25 -43 10 -80 22 -83
26 -3 5 -53 16 -110 26 -58 9 -107 20 -110 24 -15 20 -503 45 -640 33z m281
-303 c81 -21 311 -120 344 -149 11 -9 37 -38 58 -63 49 -61 116 -91 220 -97
52 -3 86 0 102 8 20 11 28 10 57 -8 58 -36 128 -120 128 -154 0 -17 -16 -18
-221 -18 -206 0 -259 -6 -259 -29 0 -21 60 -31 195 -31 79 0 146 -4 149 -9 8
-12 -70 -98 -95 -106 -11 -4 -30 0 -44 9 -20 13 -58 16 -222 16 -233 -1 -332
-11 -350 -36 -19 -26 -16 -64 10 -109 22 -39 72 -80 343 -280 196 -144 308
-267 374 -410 30 -66 60 -213 60 -299 0 -218 -86 -497 -215 -691 -49 -73 -181
-213 -256 -271 -88 -68 -161 -103 -554 -271 -171 -73 -209 -95 -272 -158 -238
-238 -167 -625 144 -772 70 -34 88 -38 176 -41 81 -4 109 -1 168 18 339 109
450 541 204 792 -61 62 -122 97 -250 142 -16 6 -4 14 58 42 81 36 176 88 327
179 50 30 97 55 105 55 22 0 130 -105 178 -173 99 -141 145 -251 172 -416 82
-487 -205 -945 -680 -1087 -110 -33 -298 -44 -409 -24 -248 43 -470 178 -613
370 -279 376 -253 888 64 1230 37 40 100 97 138 125 118 88 180 114 425 180
172 47 299 117 414 229 185 181 257 380 207 576 -41 162 -157 297 -459 534
-107 83 -217 169 -244 191 l-51 40 -123 -3 c-68 -2 -124 -1 -124 2 0 2 41 26
90 52 86 46 90 49 73 65 -33 32 -143 59 -283 70 -74 6 -136 12 -138 14 -2 1
14 19 35 39 40 37 166 105 218 116 27 5 30 10 29 41 -2 73 -16 130 -38 157
-13 15 -58 45 -100 67 -42 22 -76 43 -76 46 0 3 18 14 40 24 50 22 173 25 288
5 67 -11 95 -11 139 -2 58 12 140 59 126 73 -4 4 -42 21 -83 37 -97 38 -252
113 -247 119 3 2 45 -5 93 -16 112 -26 213 -41 284 -41 59 0 91 13 75 29 -9 9
-140 44 -268 72 -96 21 -46 31 128 25 114 -3 182 -10 236 -25z m-297 -1247
c215 -45 421 -183 539 -362 82 -122 98 -242 52 -379 -69 -205 -213 -356 -420
-442 -41 -17 -89 -34 -107 -38 l-33 -6 43 44 c24 24 60 78 80 118 36 72 37 79
37 181 0 99 -2 110 -33 172 -65 133 -170 213 -314 239 -175 32 -364 -67 -442
-231 -27 -57 -31 -78 -34 -170 -3 -90 -1 -114 18 -164 40 -106 142 -191 281
-235 125 -40 120 -35 61 -64 -119 -60 -276 -189 -337 -277 -35 -50 -60 -51
-123 -8 -168 114 -300 303 -353 503 -26 99 -35 275 -20 372 64 414 394 718
831 767 55 6 198 -4 274 -20z m-694 -1729 c0 -3 -13 -26 -30 -53 -41 -68 -76
-163 -91 -255 -11 -64 -16 -78 -34 -82 -11 -2 -77 -16 -146 -29 -70 -14 -175
-41 -234 -61 -58 -19 -108 -35 -111 -35 -13 0 0 53 27 110 54 115 114 189 214
265 123 93 241 140 363 144 23 0 42 -1 42 -4z"/>
<path d="M2946 4534 c-21 -20 -20 -27 4 -49 19 -17 22 -18 55 -2 41 19 43 30
13 51 -29 20 -52 20 -72 0z"/>
</g>
</svg>
